<svg xmlns="http://www.w3.org/2000/svg" width="64" height="64" fill="none" viewBox="0 0 64 64">
  <rect width="64" height="64" fill="#e8f7f4" rx="14"/>
  <path fill="#0d8e90" d="M18 26h28a6 6 0 0 1 6 6v16a6 6 0 0 1-6 6H18a6 6 0 0 1-6-6V32a6 6 0 0 1 6-6Z"/>
  <path fill="#06344f" fill-opacity=".2" d="M12 36h40v5H12z"/>
  <path stroke="#06344f" stroke-linecap="round" stroke-linejoin="round" stroke-width="5" d="M24 26v-6h16v6"/>
  <path fill="#fff" d="M28 34h8v8h-8z"/>
  <path fill="#a9dfda" d="M18 22h28a4 4 0 0 1 4 4v7H14v-7a4 4 0 0 1 4-4Z"/>
  <path fill="#06344f" fill-opacity=".25" d="M26 38h12v5H26z"/>
</svg>
